<svg xmlns="http://www.w3.org/2000/svg" width="43.27" height="43.27" viewBox="0 0 43.27 43.27"><g id="Layer_2" data-name="Layer 2"><g id="Layer_2-2" data-name="Layer 2"><path d="M21.64,0A21.64,21.64,0,1,0,43.27,21.64,21.63,21.63,0,0,0,21.64,0Zm0,39.08A17.45,17.45,0,1,1,39.08,21.64,17.44,17.44,0,0,1,21.64,39.08Zm8.88-22.87-5.43,5.43,5.43,5.42a1,1,0,0,1,0,1.48l-2,2a1,1,0,0,1-1.48,0l-5.42-5.43-5.43,5.43a1,1,0,0,1-1.48,0l-2-2a1,1,0,0,1,0-1.48l5.43-5.42-5.43-5.43a1,1,0,0,1,0-1.48l2-2a1,1,0,0,1,1.48,0l5.43,5.43,5.42-5.43a1,1,0,0,1,1.48,0l2,2a1,1,0,0,1,0,1.48Z" fill="#3a5c00"/></g></g></svg>