<svg xmlns="http://www.w3.org/2000/svg" width="43.27" height="43.27" viewBox="0 0 43.27 43.27"><g id="Layer_2" data-name="Layer 2"><g id="header"><circle cx="21.64" cy="21.64" r="21.64" fill="#3a5c00"/><circle cx="21.64" cy="21.64" r="17.45" fill="#fff"/><path d="M30.52,16.21l-5.43,5.43,5.43,5.42a1,1,0,0,1,0,1.48l-2,2a1,1,0,0,1-1.48,0l-5.42-5.43-5.43,5.43a1,1,0,0,1-1.48,0l-2-2a1,1,0,0,1,0-1.48l5.43-5.42-5.43-5.43a1,1,0,0,1,0-1.48l2-2a1,1,0,0,1,1.48,0l5.43,5.43,5.42-5.43a1,1,0,0,1,1.48,0l2,2a1,1,0,0,1,0,1.48Z" fill="#3a5c00"/></g></g></svg>