<svg xmlns="http://www.w3.org/2000/svg" width="200.57" height="34.75" viewBox="0 0 200.57 34.75"><g id="Layer_2" data-name="Layer 2"><g id="Layer_2-2" data-name="Layer 2"><path d="M12.86,15.87A6.79,6.79,0,0,0,9.73,15a2.38,2.38,0,0,0-1.3.32,1,1,0,0,0-.49.86,1,1,0,0,0,.08.47.75.75,0,0,0,.35.33,2.77,2.77,0,0,0,.8.29l1.39.32a6.65,6.65,0,0,1,3.58,1.71,4.4,4.4,0,0,1,1.19,3.16,5.64,5.64,0,0,1-.58,2.59A5.44,5.44,0,0,1,13.15,27a7.46,7.46,0,0,1-2.46,1.22,11,11,0,0,1-3.17.43A12.85,12.85,0,0,1,1,26.78l2.11-4.09a8.24,8.24,0,0,0,4.61,1.66A2.3,2.3,0,0,0,9,24a1,1,0,0,0,.51-.9,1.29,1.29,0,0,0-.08-.52.85.85,0,0,0-.33-.39,3,3,0,0,0-.75-.32c-.34-.09-.77-.2-1.3-.3A7.34,7.34,0,0,1,3.28,20a4,4,0,0,1-1.07-3,5.88,5.88,0,0,1,.51-2.48,5.14,5.14,0,0,1,1.47-1.87,6.77,6.77,0,0,1,2.32-1.18,10.27,10.27,0,0,1,3-.42,13.64,13.64,0,0,1,5.28,1.06Z" transform="translate(-0.96 -1.5)" fill="#fff"/><path d="M17.89,5.34a3.18,3.18,0,0,1,.25-1.26,3.37,3.37,0,0,1,.71-1,3.23,3.23,0,0,1,1-.7,3.12,3.12,0,0,1,1.26-.26,3.21,3.21,0,0,1,1.27.26,3.34,3.34,0,0,1,1,.7,3.53,3.53,0,0,1,.7,1,3.21,3.21,0,0,1,0,2.53,3.53,3.53,0,0,1-.7,1,3.34,3.34,0,0,1-1,.7,3.21,3.21,0,0,1-1.27.26,3.12,3.12,0,0,1-1.26-.26,3.23,3.23,0,0,1-1-.7,3.37,3.37,0,0,1-.71-1A3.2,3.2,0,0,1,17.89,5.34Zm6.17,6.31V28.06H18.27V11.65Z" transform="translate(-0.96 -1.5)" fill="#fff"/><path d="M34.5,16.48V28.06H28.7V16.48H26.78V11.65H28.7V6.72h5.8v4.93h3.29v4.83Z" transform="translate(-0.96 -1.5)" fill="#fff"/><path d="M45.5,20.83c0,2.5,1.18,3.75,3.52,3.75A3.16,3.16,0,0,0,51.87,23h5.6Q55.78,28.67,49,28.67a11.28,11.28,0,0,1-3.81-.62,8.54,8.54,0,0,1-3-1.78,7.93,7.93,0,0,1-1.9-2.75,9.14,9.14,0,0,1-.67-3.58,10.08,10.08,0,0,1,.64-3.7,7.68,7.68,0,0,1,1.82-2.8A8.11,8.11,0,0,1,45,11.66a11,11,0,0,1,3.8-.62,10.75,10.75,0,0,1,3.74.62,7.65,7.65,0,0,1,2.82,1.81,8.06,8.06,0,0,1,1.76,2.9,11.57,11.57,0,0,1,.6,3.85v.61Zm6.79-3.36a3.52,3.52,0,0,0-1.19-1.95,3.3,3.3,0,0,0-2.17-.74,3.34,3.34,0,0,0-2.2.71,3.21,3.21,0,0,0-1.07,2Z" transform="translate(-0.96 -1.5)" fill="#fff"/><path d="M66.08,25.82,58.14,11.65h6.72l4.39,8.41,4.25-8.41h6.66L67,36.26H60.48Z" transform="translate(-0.96 -1.5)" fill="#fff"/><path d="M87.93,11.65V20.9c0,2,1,3,2.95,3s2.94-1,2.94-3V11.65h5.79V22a5.88,5.88,0,0,1-2.19,5q-2.19,1.66-6.54,1.66T84.33,27a5.88,5.88,0,0,1-2.19-5V11.65Z" transform="translate(-0.96 -1.5)" fill="#fff"/><path d="M103.55,1.5h5.79V13.73a6.36,6.36,0,0,1,2.4-1.94,7.53,7.53,0,0,1,2.85-.49A6.09,6.09,0,0,1,119.28,13a6.56,6.56,0,0,1,1.58,4.62V28.06h-5.79V19.78a8.47,8.47,0,0,0-.19-2,2.31,2.31,0,0,0-.64-1.18,2.72,2.72,0,0,0-1.86-.68,2.87,2.87,0,0,0-2.25.88,3.64,3.64,0,0,0-.79,2.52v8.76h-5.79Z" transform="translate(-0.96 -1.5)" fill="#fff"/><path d="M124.51,25a3.75,3.75,0,0,1,.29-1.45,3.68,3.68,0,0,1,2-2,3.8,3.8,0,0,1,2.91,0,3.68,3.68,0,0,1,2,2A3.75,3.75,0,0,1,132,25a3.8,3.8,0,0,1-.29,1.46,3.68,3.68,0,0,1-2,2,3.8,3.8,0,0,1-2.91,0,3.68,3.68,0,0,1-2-2A3.8,3.8,0,0,1,124.51,25Z" transform="translate(-0.96 -1.5)" fill="#fff"/><path d="M148.06,17a5.35,5.35,0,0,0-3-1,4.18,4.18,0,0,0-1.55.28,4,4,0,0,0-1.26.82,3.6,3.6,0,0,0-.85,1.25,4,4,0,0,0-.31,1.61,4,4,0,0,0,1.14,2.84,3.6,3.6,0,0,0,1.26.81,4.33,4.33,0,0,0,1.57.29,4.77,4.77,0,0,0,3-1.12v4.93a10.21,10.21,0,0,1-4.06.93,9.72,9.72,0,0,1-3.41-.61,8.67,8.67,0,0,1-2.85-1.75,8.45,8.45,0,0,1-2-2.72A8.26,8.26,0,0,1,135,20a8.85,8.85,0,0,1,.7-3.57,8.53,8.53,0,0,1,1.92-2.78,8.74,8.74,0,0,1,2.9-1.83,9.75,9.75,0,0,1,3.6-.65,8.66,8.66,0,0,1,3.9.89Z" transform="translate(-0.96 -1.5)" fill="#fff"/><path d="M150.72,19.71a8,8,0,0,1,.73-3.41,8.5,8.5,0,0,1,2.05-2.75,9.87,9.87,0,0,1,3.12-1.84,12,12,0,0,1,7.87,0,9.56,9.56,0,0,1,3.14,1.82,8.3,8.3,0,0,1,2.06,2.78,8.54,8.54,0,0,1,.74,3.57,8.39,8.39,0,0,1-.75,3.57,8.27,8.27,0,0,1-2.07,2.78A9,9,0,0,1,164.46,28a12,12,0,0,1-4,.64,11.5,11.5,0,0,1-3.91-.64,9,9,0,0,1-3.09-1.82,8.49,8.49,0,0,1-2-2.83A8.91,8.91,0,0,1,150.72,19.71Zm6.11.07a3.78,3.78,0,0,0,.3,1.52,4.49,4.49,0,0,0,.8,1.2,3.67,3.67,0,0,0,1.19.8,3.74,3.74,0,0,0,1.45.28A3.79,3.79,0,0,0,162,23.3a3.62,3.62,0,0,0,1.18-.8,4.27,4.27,0,0,0,.8-1.2,3.55,3.55,0,0,0,.31-1.49,3.48,3.48,0,0,0-.31-1.46,4,4,0,0,0-.8-1.2,3.47,3.47,0,0,0-1.18-.8,3.8,3.8,0,0,0-1.46-.29,3.75,3.75,0,0,0-1.45.29,3.52,3.52,0,0,0-1.19.8,4.29,4.29,0,0,0-.8,1.19A3.44,3.44,0,0,0,156.83,19.78Z" transform="translate(-0.96 -1.5)" fill="#fff"/><path d="M173.76,11.65h5.79v2a7.51,7.51,0,0,1,5.31-2.27,6.2,6.2,0,0,1,5.57,3.07,6.23,6.23,0,0,1,5.57-3.1,6.71,6.71,0,0,1,2.17.34,4.36,4.36,0,0,1,1.76,1.05,5.15,5.15,0,0,1,1.17,1.87,7.94,7.94,0,0,1,.43,2.79V28.06h-5.79V20a9.6,9.6,0,0,0-.18-2,3.08,3.08,0,0,0-.51-1.25,1.68,1.68,0,0,0-.78-.61,3,3,0,0,0-1-.16q-2.79,0-2.79,4.07v8.09h-5.79V20a10.87,10.87,0,0,0-.16-2.07,3.72,3.72,0,0,0-.46-1.29,1.54,1.54,0,0,0-.79-.66,3.55,3.55,0,0,0-2.14,0,1.79,1.79,0,0,0-.85.62,3.55,3.55,0,0,0-.57,1.28,8.76,8.76,0,0,0-.21,2.13v8.09h-5.79Z" transform="translate(-0.96 -1.5)" fill="#fff"/></g></g></svg>