<svg xmlns="http://www.w3.org/2000/svg" viewBox="0 0 156 156"><g id="Layer_2" data-name="Layer 2"><g id="header"><path d="M78,30.19a30.2,30.2,0,1,0,30.19,30.2A30.2,30.2,0,0,0,78,30.19Zm0,45.29A15.1,15.1,0,1,1,93.1,60.39,15.1,15.1,0,0,1,78,75.48ZM78,0a78,78,0,1,0,78,78A78,78,0,0,0,78,0Zm0,140.9a62.54,62.54,0,0,1-40.92-15.22A27.1,27.1,0,0,1,59,113.26a64.08,64.08,0,0,0,19,3,63.13,63.13,0,0,0,19-3,27.18,27.18,0,0,1,21.89,12.42A62.54,62.54,0,0,1,78,140.9Zm51.17-26.45a41.72,41.72,0,0,0-33-16.32c-3.21,0-8.18,3-18.12,3s-14.91-3-18.12-3a41.81,41.81,0,0,0-33.05,16.32A62.87,62.87,0,1,1,140.9,78,62.42,62.42,0,0,1,129.17,114.45Z" fill="#3a5c00"/></g></g></svg>